<?xml version="1.0" standalone="no"?>
<!DOCTYPE svg PUBLIC "-//W3C//DTD SVG 20010904//EN"
 "http://www.w3.org/TR/2001/REC-SVG-20010904/DTD/svg10.dtd">
<svg version="1.0" xmlns="http://www.w3.org/2000/svg"
 width="1080.000000pt" height="917.000000pt" viewBox="0 0 1080.000000 917.000000"
 preserveAspectRatio="xMidYMid meet">

<g transform="translate(0.000000,917.000000) scale(0.100000,-0.100000)"
fill="#000000" stroke="none">
<path d="M1 9103 l0 -68 17 42 c9 22 25 50 35 60 24 28 22 33 -18 33 l-35 0 1
-67z"/>
<path d="M10730 9163 c0 -4 9 -16 19 -27 10 -12 26 -41 35 -66 l15 -45 1 73 0
72 -35 0 c-19 0 -35 -3 -35 -7z"/>
<path d="M5118 7974 c-4 -3 -33 -10 -65 -14 -47 -6 -36 -7 62 -8 82 0 109 3
85 8 -19 5 -44 11 -55 15 -11 3 -24 3 -27 -1z"/>
<path d="M4880 7950 c0 -7 14 -8 38 -4 51 9 53 14 4 14 -23 0 -42 -5 -42 -10z"/>
<path d="M5360 7949 c0 -5 5 -7 10 -4 6 3 10 8 10 11 0 2 -4 4 -10 4 -5 0 -10
-5 -10 -11z"/>
<path d="M4790 7940 c-12 -8 -10 -10 8 -10 13 0 20 4 17 10 -7 12 -6 12 -25 0z"/>
<path d="M5415 7940 c4 -6 36 -10 72 -9 81 2 63 19 -20 19 -37 0 -56 -4 -52
-10z"/>
<path d="M4677 7926 c-57 -15 -77 -31 -27 -22 19 4 50 9 68 13 17 3 32 9 32
14 0 12 -14 11 -73 -5z"/>
<path d="M5590 7918 c0 -7 11 -14 25 -14 28 -2 34 11 9 20 -24 9 -34 7 -34 -6z"/>
<path d="M4550 7894 c-37 -13 -17 -16 35 -5 20 4 25 8 15 12 -8 4 -31 0 -50
-7z"/>
<path d="M5680 7900 c0 -5 5 -10 10 -10 6 0 10 5 10 10 0 6 -4 10 -10 10 -5 0
-10 -4 -10 -10z"/>
<path d="M5733 7879 c14 -8 22 -8 30 0 8 8 3 11 -18 11 -26 -1 -28 -2 -12 -11z"/>
<path d="M4455 7860 c3 -5 13 -10 21 -10 8 0 14 5 14 10 0 6 -9 10 -21 10 -11
0 -17 -4 -14 -10z"/>
<path d="M5830 7859 c-12 -8 -10 -9 8 -4 12 4 22 2 22 -4 0 -6 19 -15 43 -22
23 -6 47 -15 54 -21 7 -5 17 -8 24 -6 6 2 -6 12 -27 22 -22 11 -51 25 -66 33
-31 16 -38 16 -58 2z"/>
<path d="M4347 7835 c-47 -16 -57 -25 -29 -25 12 0 36 9 54 20 38 23 29 25
-25 5z"/>
<path d="M6000 7802 c0 -10 65 -42 85 -42 8 0 15 5 15 10 0 6 -9 10 -20 10
-12 0 -34 7 -50 15 -17 9 -30 12 -30 7z"/>
<path d="M4235 7790 c-17 -7 -15 -9 12 -9 17 -1 35 4 38 9 7 12 -22 12 -50 0z"/>
<path d="M4134 7750 c-15 -15 -126 -70 -141 -70 -7 0 -13 -4 -13 -8 0 -5 -20
-19 -45 -31 -25 -12 -45 -27 -45 -32 0 -6 6 -7 13 -2 6 4 18 8 25 9 8 2 22 10
31 18 10 9 22 16 28 16 6 0 13 3 15 8 2 4 38 25 81 46 42 22 77 44 77 48 0 11
-14 10 -26 -2z"/>
<path d="M6116 7746 c3 -8 15 -17 27 -20 43 -11 52 -6 22 14 -35 23 -57 26
-49 6z"/>
<path d="M6206 7702 c5 -5 29 -17 54 -27 25 -11 47 -22 50 -25 9 -12 40 -19
40 -11 0 12 -114 71 -137 71 -10 0 -13 -3 -7 -8z"/>
<path d="M6360 7622 c0 -9 44 -32 58 -32 10 1 -38 40 -49 40 -5 0 -9 -4 -9 -8z"/>
<path d="M8470 7606 c0 -8 -9 -21 -20 -29 -15 -10 -19 -21 -15 -43 7 -39 -7
-85 -30 -98 -11 -6 -26 -19 -34 -29 -9 -14 -16 -16 -24 -8 -19 19 -27 12 -27
-21 0 -18 -7 -42 -15 -52 -8 -11 -15 -31 -15 -45 0 -35 -13 -53 -32 -46 -9 4
-21 -4 -32 -19 -9 -15 -22 -26 -30 -26 -7 0 -21 -9 -31 -20 -10 -11 -41 -31
-69 -44 l-51 -24 3 -621 c2 -558 4 -621 18 -621 34 0 72 33 85 74 7 23 16 46
20 51 4 6 21 55 38 110 18 55 39 120 48 145 9 25 46 133 83 240 37 107 79 227
94 265 17 44 28 90 28 125 0 58 11 87 37 107 13 9 16 31 16 100 0 70 3 88 15
88 8 0 17 -11 20 -24 9 -38 27 -36 40 4 10 29 9 44 -4 82 -9 26 -16 74 -16
108 0 69 -19 141 -55 214 -14 27 -25 54 -25 60 0 6 -4 11 -10 11 -5 0 -10 -6
-10 -14z"/>
<path d="M3800 7555 c-25 -19 -48 -34 -52 -34 -9 -1 -58 -47 -58 -55 0 -13 16
-5 45 21 35 33 92 73 104 73 5 0 14 7 21 15 23 28 -12 16 -60 -20z"/>
<path d="M6448 7563 c7 -3 16 -2 19 1 4 3 -2 6 -13 5 -11 0 -14 -3 -6 -6z"/>
<path d="M6490 7543 c0 -14 69 -63 75 -54 3 6 -10 21 -28 35 -35 27 -47 31
-47 19z"/>
<path d="M5131 7496 c-26 -31 20 -67 59 -46 21 11 24 19 14 44 -8 20 -57 21
-73 2z"/>
<path d="M4903 7483 c-26 -5 -25 -4 -48 -153 -9 -58 -20 -130 -26 -159 -14
-83 23 -101 40 -20 6 28 12 35 41 41 52 12 80 2 92 -33 l10 -30 101 6 c56 3
104 9 107 13 3 4 3 63 0 132 l-5 125 -45 0 -45 0 1 -117 c1 -87 -2 -118 -11
-118 -6 0 -18 19 -25 43 -7 23 -21 58 -31 77 -22 45 -65 149 -74 178 -6 22
-26 26 -82 15z m44 -192 c20 -56 17 -61 -27 -61 -45 0 -45 0 -28 85 11 58 12
58 27 35 9 -13 21 -40 28 -59z"/>
<path d="M6585 7470 c3 -5 8 -10 11 -10 2 0 4 5 4 10 0 6 -5 10 -11 10 -5 0
-7 -4 -4 -10z"/>
<path d="M3641 7436 c-26 -28 -18 -35 13 -11 10 7 16 19 14 25 -2 6 -14 0 -27
-14z"/>
<path d="M5806 7442 c-3 -5 -17 -53 -31 -108 -15 -54 -33 -121 -41 -148 -16
-58 -18 -76 -4 -76 5 0 14 19 21 43 6 23 20 74 32 112 19 65 21 68 28 40 3
-16 7 -71 8 -122 1 -80 4 -94 20 -103 28 -14 28 -14 52 33 36 71 101 159 109
150 5 -4 -3 -50 -17 -101 -13 -52 -22 -100 -19 -107 5 -13 63 -31 72 -22 9 8
77 282 78 311 1 26 -3 31 -33 37 -46 10 -54 5 -81 -44 -13 -23 -34 -57 -46
-75 -13 -18 -25 -38 -27 -45 -10 -29 -19 8 -22 90 -2 48 -3 95 -4 104 -1 10
-13 20 -28 23 -16 4 -35 9 -45 12 -9 3 -19 1 -22 -4z"/>
<path d="M6610 7441 c0 -6 5 -11 10 -11 6 0 23 -11 38 -25 15 -14 33 -25 39
-25 20 0 -4 33 -35 48 -46 23 -52 24 -52 13z"/>
<path d="M3526 7338 c-83 -79 -107 -119 -28 -47 26 24 62 56 80 72 27 23 41
47 28 47 -2 0 -38 -33 -80 -72z"/>
<path d="M5270 7401 c0 -5 14 -35 30 -66 17 -31 30 -65 30 -74 0 -9 -13 -32
-30 -51 -35 -42 -41 -77 -10 -60 12 6 26 22 32 36 16 34 34 30 63 -16 23 -37
29 -40 70 -40 55 0 56 8 15 88 -16 33 -30 67 -30 77 0 10 14 33 30 52 53 59
30 77 -24 18 l-32 -35 -23 40 c-21 38 -24 40 -72 40 -27 0 -49 -4 -49 -9z"/>
<path d="M6740 7340 c11 -11 22 -20 25 -20 3 0 1 9 -5 20 -6 11 -17 20 -25 20
-11 0 -10 -5 5 -20z"/>
<path d="M6214 7309 c-9 -14 24 -41 46 -37 8 2 15 12 15 23 0 23 -48 34 -61
14z"/>
<path d="M6782 7298 c3 -7 13 -15 24 -17 16 -3 17 -1 5 13 -16 19 -34 21 -29
4z"/>
<path d="M4569 7298 c-6 -30 -6 -78 1 -78 6 0 10 18 10 40 0 22 -2 40 -5 40
-3 0 -5 -1 -6 -2z"/>
<path d="M6830 7261 c0 -13 29 -35 37 -28 7 8 -15 37 -28 37 -5 0 -9 -4 -9 -9z"/>
<path d="M4403 7253 c-13 -2 -23 -11 -23 -18 0 -24 174 -225 182 -212 4 7 8
43 8 81 0 60 -2 67 -13 52 -12 -17 -15 -16 -43 17 -16 20 -37 47 -47 61 -18
26 -22 27 -64 19z"/>
<path d="M3410 7224 c0 -14 3 -14 15 -4 8 7 15 14 15 16 0 2 -7 4 -15 4 -8 0
-15 -7 -15 -16z"/>
<path d="M6170 7214 c-6 -16 -14 -38 -19 -49 -27 -58 -59 -150 -55 -157 2 -3
18 -13 34 -22 36 -18 32 -23 85 117 36 98 39 127 11 127 -8 0 -21 3 -30 6 -11
4 -19 -3 -26 -22z"/>
<path d="M6880 7212 c0 -10 11 -25 25 -32 14 -7 25 -20 25 -28 0 -8 18 -31 41
-52 22 -20 46 -46 52 -57 29 -50 100 -149 113 -156 8 -4 14 -15 14 -22 0 -8 7
-15 15 -15 13 0 11 6 -7 30 -12 17 -25 30 -30 30 -4 0 -8 8 -8 18 0 11 -9 27
-20 37 -11 10 -20 22 -20 27 0 4 -8 16 -17 27 -10 10 -25 28 -34 39 -8 12 -31
38 -50 59 -18 21 -49 55 -66 76 -25 29 -33 33 -33 19z"/>
<path d="M3380 7200 c-8 -5 -11 -12 -7 -16 4 -4 13 -2 19 4 15 15 7 24 -12 12z"/>
<path d="M4293 7173 c9 -9 20 -13 24 -9 4 4 1 11 -7 16 -25 16 -35 11 -17 -7z"/>
<path d="M3332 7147 c-12 -13 -22 -26 -22 -30 0 -16 18 -5 38 23 27 35 15 40
-16 7z"/>
<path d="M6332 7158 c-13 -16 -104 -210 -100 -212 2 -1 15 -9 29 -18 26 -16
59 -9 59 13 0 17 58 127 79 150 16 17 18 25 9 45 -6 13 -17 24 -24 24 -7 0
-19 2 -27 5 -7 3 -19 0 -25 -7z"/>
<path d="M4174 7149 c-18 -23 -24 -49 -18 -72 7 -29 62 -56 103 -51 40 5 95
-22 87 -42 -9 -23 22 -16 35 7 8 17 8 31 0 60 -10 34 -15 38 -62 48 -27 6 -65
11 -83 11 -26 0 -34 5 -42 27 -7 21 -11 24 -20 12z"/>
<path d="M6445 7108 c-2 -7 -6 -26 -7 -43 -2 -24 1 -31 18 -33 16 -2 25 5 34
29 12 28 12 33 -5 45 -23 17 -34 18 -40 2z"/>
<path d="M3280 7096 c0 -8 -13 -30 -30 -48 -16 -18 -30 -38 -30 -44 0 -6 -9
-19 -20 -29 -11 -10 -20 -22 -20 -27 0 -14 40 16 46 35 3 11 13 27 22 37 47
50 66 90 42 90 -5 0 -10 -6 -10 -14z"/>
<path d="M3981 7061 c-11 -7 -9 -13 9 -31 14 -14 20 -30 17 -46 -3 -15 0 -24
9 -24 14 0 57 -53 67 -82 8 -22 56 -24 83 -3 19 15 18 16 -8 39 -16 14 -28 27
-28 30 0 2 -16 32 -36 65 -32 54 -40 61 -68 61 -17 0 -37 -4 -45 -9z"/>
<path d="M6543 7015 c-8 -24 5 -30 24 -13 10 9 25 18 33 21 8 3 0 6 -18 6 -21
1 -35 -5 -39 -14z"/>
<path d="M6654 6973 l1 -38 -92 0 c-80 0 -94 -3 -107 -20 -23 -31 -19 -69 10
-99 33 -32 58 -35 49 -5 -15 45 31 99 85 99 29 0 24 -21 -15 -68 -40 -46 -40
-80 -2 -107 31 -22 56 -19 50 5 -5 18 48 112 84 148 23 23 15 57 -22 90 -19
18 -36 32 -38 32 -3 0 -4 -17 -3 -37z"/>
<path d="M3890 6963 c0 -13 5 -23 10 -23 13 0 13 11 0 30 -8 12 -10 11 -10 -7z"/>
<path d="M4200 6962 c0 -16 25 -32 50 -31 24 0 24 1 4 9 -12 5 -25 13 -29 19
-7 13 -25 15 -25 3z"/>
<path d="M3722 6938 c3 -7 13 -15 24 -17 16 -3 17 -1 5 13 -16 19 -34 21 -29
4z"/>
<path d="M3984 6939 c-17 -22 -44 -85 -44 -102 0 -9 12 -25 27 -37 29 -23 66
-21 93 6 12 12 12 14 -6 14 -23 0 -52 50 -56 99 -2 27 -5 31 -14 20z"/>
<path d="M4487 6929 c7 -7 15 -10 18 -7 3 3 -2 9 -12 12 -14 6 -15 5 -6 -5z"/>
<path d="M3620 6922 c0 -5 -9 -18 -21 -31 -47 -50 -30 -160 34 -217 60 -54 87
-67 132 -62 41 5 101 35 90 46 -3 3 -10 1 -16 -5 -18 -18 -58 3 -117 60 -91
88 -113 139 -87 200 4 10 3 17 -4 17 -6 0 -11 -4 -11 -8z"/>
<path d="M3134 6897 c-21 -22 -38 -57 -28 -57 10 0 34 28 34 39 0 6 6 11 14
11 8 0 16 7 20 15 8 23 -16 18 -40 -8z"/>
<path d="M6785 6854 c-8 -20 -15 -38 -15 -41 0 -14 -66 -171 -78 -185 -19 -23
-68 -23 -76 -1 -5 12 -10 13 -18 5 -8 -8 -8 -15 1 -26 29 -34 51 -29 212 50
142 70 180 94 149 94 -5 0 -31 -13 -57 -30 -71 -45 -106 -38 -79 17 39 78 50
103 46 106 -3 2 -19 13 -37 26 l-32 22 -16 -37z"/>
<path d="M3787 6829 c-23 -23 -34 -36 -25 -30 30 22 90 -31 107 -97 l8 -27 17
33 c9 17 23 32 31 32 22 0 18 13 -16 51 -17 19 -38 44 -46 57 -9 12 -19 22
-25 22 -5 0 -28 -19 -51 -41z"/>
<path d="M3097 6823 c-4 -3 -7 -11 -7 -17 0 -6 5 -5 12 2 6 6 9 14 7 17 -3 3
-9 2 -12 -2z"/>
<path d="M7201 6802 c-1 -12 10 -40 24 -61 23 -37 45 -59 45 -46 0 10 -22 49
-30 55 -5 3 -15 21 -23 40 -13 29 -16 31 -16 12z"/>
<path d="M5065 6761 c-3 -17 -11 -33 -16 -36 -12 -8 -12 -65 1 -65 9 0 14 14
11 33 0 4 3 7 9 7 14 0 24 70 12 82 -7 7 -12 0 -17 -21z"/>
<path d="M3044 6745 c-10 -22 -22 -41 -26 -43 -5 -2 -8 -8 -8 -13 0 -5 -11
-27 -25 -49 -14 -22 -25 -48 -25 -59 0 -11 -5 -23 -10 -26 -12 -7 -70 -131
-70 -149 0 -6 -7 -24 -15 -39 -8 -15 -17 -45 -21 -65 -4 -20 -11 -45 -16 -56
-8 -14 -7 -17 4 -14 7 3 16 22 19 44 5 34 16 61 59 159 5 11 25 56 45 100 19
44 39 87 45 95 43 69 71 124 67 138 -2 12 -10 4 -23 -23z"/>
<path d="M4904 6695 c8 -34 33 -65 51 -65 7 0 15 -7 19 -15 3 -8 10 -15 15
-15 7 0 6 9 -1 25 -6 14 -17 25 -25 25 -7 0 -13 6 -13 13 0 8 -12 24 -26 38
l-27 24 7 -30z"/>
<path d="M5181 6667 c-20 -51 -13 -70 15 -43 16 17 18 35 4 56 -7 11 -11 9
-19 -13z"/>
<path d="M7290 6631 c0 -17 5 -33 10 -36 6 -4 10 8 10 29 0 20 -4 36 -10 36
-5 0 -10 -13 -10 -29z"/>
<path d="M4665 6625 c-3 -14 -7 -36 -10 -50 -3 -15 1 -35 10 -48 15 -22 15
-21 9 9 -3 19 -2 34 5 38 14 9 15 76 1 76 -5 0 -12 -11 -15 -25z"/>
<path d="M5361 6636 c-7 -9 -19 -16 -25 -16 -13 0 -41 -58 -32 -67 3 -3 18 6
32 20 15 15 23 27 18 27 -4 0 0 6 10 13 11 8 17 19 15 26 -4 10 -8 9 -18 -3z"/>
<path d="M5534 6615 c-3 -8 -2 -20 2 -27 5 -7 7 -21 6 -31 -2 -9 4 -24 13 -33
15 -15 15 -14 9 12 -6 28 -6 28 9 9 25 -31 22 5 -4 49 -23 40 -27 42 -35 21z"/>
<path d="M5714 6612 c-4 -12 -13 -22 -20 -22 -18 0 -18 -24 -1 -39 20 -16 57
53 39 71 -10 10 -14 8 -18 -10z"/>
<path d="M4550 6576 c0 -41 2 -44 25 -42 14 0 25 6 25 11 0 12 -38 75 -45 75
-3 0 -5 -20 -5 -44z"/>
<path d="M5203 6565 c0 -22 2 -30 4 -17 2 12 2 30 0 40 -3 9 -5 -1 -4 -23z"/>
<path d="M4793 6562 c-33 -29 -32 -61 2 -49 9 4 14 11 11 16 -3 5 1 11 8 14 8
3 20 15 26 26 16 30 -7 27 -47 -7z"/>
<path d="M5461 6556 c-26 -28 -41 -109 -22 -120 7 -5 9 3 5 26 -4 24 -3 29 5
18 15 -21 27 -3 13 20 -16 27 -15 32 6 26 14 -5 18 0 20 24 3 36 2 36 -27 6z"/>
<path d="M6175 6571 c-3 -5 -3 -27 1 -49 3 -23 1 -48 -5 -61 -7 -11 -8 -21 -3
-21 12 0 32 61 32 98 0 31 -14 50 -25 33z"/>
<path d="M7326 6558 c3 -13 17 -43 30 -68 13 -25 24 -50 24 -56 0 -6 6 -17 14
-23 12 -10 13 -8 8 12 -13 43 -67 157 -75 157 -5 0 -5 -10 -1 -22z"/>
<path d="M4889 6551 c-40 -49 -56 -117 -24 -105 10 4 12 15 8 35 -4 24 -3 28
10 23 11 -4 17 3 22 26 8 38 4 45 -16 21z"/>
<path d="M5669 6548 c-7 -25 -7 -48 1 -48 6 0 10 11 10 25 0 20 -7 35 -11 23z"/>
<path d="M6010 6514 c0 -31 48 -94 72 -94 4 0 8 7 8 16 0 8 -4 12 -10 9 -5 -3
-10 2 -10 13 0 10 -13 31 -30 47 -27 26 -30 27 -30 9z"/>
<path d="M4580 6498 c0 -19 2 -20 10 -8 13 19 13 30 0 30 -5 0 -10 -10 -10
-22z"/>
<path d="M4747 6503 c-4 -3 -7 -11 -7 -17 0 -6 5 -5 12 2 6 6 9 14 7 17 -3 3
-9 2 -12 -2z"/>
<path d="M5050 6473 c1 -47 18 -71 58 -79 37 -8 97 -56 118 -96 17 -34 16 -37
-17 -44 -79 -17 -127 -16 -154 2 -28 18 -29 18 -22 1 6 -15 -3 -47 -18 -65 -1
-1 -15 4 -31 13 -38 19 -51 19 -64 -2 -8 -13 -10 -13 -7 -3 3 9 -4 20 -18 26
-19 9 -22 8 -20 -10 4 -31 45 -96 61 -96 17 0 17 5 3 31 -17 33 4 50 44 35 35
-12 49 -25 43 -41 -6 -17 21 -48 29 -35 4 6 4 14 1 17 -3 3 -1 12 5 19 6 8 9
20 6 28 -7 19 10 24 109 35 105 12 107 11 99 -57 -9 -71 -11 -77 -40 -92 -13
-7 -26 -22 -29 -34 -6 -26 -74 -96 -93 -96 -7 0 -13 -4 -13 -8 0 -5 -15 -24
-33 -43 -17 -19 -39 -45 -48 -58 -12 -19 -20 -23 -42 -17 -32 8 -163 129 -173
159 -4 12 -19 48 -35 80 -32 66 -45 150 -30 188 5 15 22 39 36 53 15 15 25 30
22 32 -7 8 -47 -15 -47 -26 0 -6 -9 -10 -20 -10 -26 0 -53 63 -46 108 6 40 2
41 -18 1 -15 -29 -14 -34 9 -77 14 -26 25 -59 25 -74 0 -26 -3 -28 -40 -28
-49 0 -52 -15 -5 -30 23 -8 35 -18 35 -30 0 -10 4 -21 9 -24 5 -4 12 -25 16
-48 4 -23 17 -55 28 -70 16 -22 18 -30 8 -42 -10 -12 1 -28 66 -96 43 -45 83
-91 89 -103 17 -33 24 -146 12 -173 -13 -28 -26 -30 -54 -9 -25 19 -38 19 -30
0 3 -8 2 -15 -3 -15 -5 0 -11 -9 -14 -20 -5 -18 -1 -19 36 -14 36 5 40 3 26
-8 -8 -7 -20 -33 -25 -57 -6 -27 -18 -49 -32 -59 -22 -14 -23 -14 -29 6 -5 19
-23 32 -23 17 0 -11 35 -60 55 -76 17 -14 18 -20 7 -43 -7 -15 -12 -42 -12
-61 0 -31 -2 -34 -32 -33 -18 0 -84 -16 -147 -36 -62 -20 -130 -36 -151 -36
-40 0 -44 4 -80 98 -32 84 -28 104 33 154 90 76 125 98 151 98 14 0 26 5 26
11 0 7 -11 9 -29 6 -20 -4 -31 -2 -35 9 -8 22 10 62 33 69 12 3 21 10 21 15 0
11 -48 -8 -72 -28 -11 -9 -18 -29 -18 -49 0 -18 -3 -33 -7 -33 -5 0 -28 -18
-53 -40 -51 -45 -69 -49 -94 -21 -15 17 -17 37 -14 151 l3 132 39 35 c33 31
37 39 27 54 -6 10 -11 33 -11 50 0 24 -4 30 -16 25 -8 -3 -12 -2 -9 4 3 6 15
10 26 10 10 0 19 5 19 10 0 6 -9 10 -20 10 -23 0 -70 -45 -70 -66 0 -16 16
-19 25 -4 11 18 24 10 27 -17 2 -20 -7 -41 -33 -73 -46 -57 -63 -153 -49 -275
6 -52 -18 -58 -66 -16 -19 17 -39 31 -43 31 -15 0 -75 68 -96 107 -11 21 -23
40 -26 43 -11 9 -21 64 -29 165 -6 81 -5 104 7 123 20 33 11 37 -17 7 -27 -28
-48 -32 -56 -10 -10 25 -27 17 -22 -10 3 -14 1 -28 -3 -31 -12 -7 -11 -84 0
-84 5 0 12 -8 14 -17 3 -12 5 -8 6 9 0 15 6 30 11 33 6 3 10 17 10 31 0 13 4
24 9 24 9 0 22 -99 26 -193 1 -29 8 -52 17 -60 9 -6 23 -28 33 -49 15 -33 88
-108 193 -199 33 -28 42 -42 42 -67 0 -37 -10 -39 -66 -14 -21 11 -78 27 -126
37 -79 16 -88 20 -112 53 -20 28 -26 32 -25 17 1 -41 16 -58 60 -71 24 -8 58
-14 74 -14 34 0 125 -32 171 -61 28 -17 64 -71 64 -96 0 -9 -123 -68 -161 -77
-15 -3 -41 -22 -58 -41 -17 -19 -35 -35 -40 -35 -6 0 -6 -10 0 -29 12 -35 8
-106 -6 -105 -5 1 -16 12 -23 25 -13 23 -13 23 -7 -9 7 -36 -7 -62 -35 -62 -9
0 -25 -8 -34 -19 -9 -10 -30 -21 -47 -25 -34 -6 -38 -22 -8 -31 14 -5 28 0 42
13 33 31 110 63 118 50 11 -17 1 -30 -43 -63 -40 -29 -59 -55 -41 -55 5 0 19
9 31 20 12 11 26 20 31 20 26 0 49 53 61 142 16 119 36 147 128 182 76 29 115
32 152 11 38 -22 145 -19 215 6 40 14 70 18 94 14 63 -12 136 -115 81 -115
-38 0 -120 -22 -120 -32 0 -6 11 -8 28 -3 95 24 137 14 209 -50 52 -45 140
-174 135 -196 -1 -9 9 -45 23 -80 39 -96 33 -193 -19 -284 -14 -24 -25 -64
-29 -102 -3 -34 -12 -74 -20 -90 -9 -15 -18 -35 -21 -45 -2 -9 -18 -19 -34
-23 -16 -3 -57 -26 -90 -51 -52 -39 -77 -49 -169 -71 -59 -14 -125 -28 -145
-30 -44 -6 -51 -23 -10 -23 26 -1 27 -1 7 -16 -18 -15 -13 -16 67 -10 48 4
113 14 143 22 31 7 63 14 70 14 22 0 18 -23 -5 -38 -21 -13 -45 -60 -36 -70 3
-3 29 13 58 36 38 29 69 43 108 50 30 6 57 8 59 6 2 -2 -3 -12 -12 -22 -10
-10 -17 -22 -17 -25 0 -16 45 -5 72 18 38 32 61 31 130 -5 57 -30 148 -51 148
-34 0 5 -10 14 -22 19 -12 6 -23 15 -25 21 -8 25 28 21 103 -12 102 -44 126
-45 87 -2 -9 10 -13 21 -10 25 4 3 62 -2 130 -12 202 -30 202 -30 132 5 -67
33 -60 36 35 15 36 -8 81 -14 100 -14 30 1 25 4 -30 19 -67 18 -248 88 -310
120 -44 23 -60 41 -99 113 -25 47 -29 62 -21 78 8 13 9 75 6 182 -6 176 -14
231 -39 291 -22 50 -21 74 2 112 27 44 174 154 215 161 36 6 120 -9 170 -31
87 -37 83 -37 101 -9 17 25 17 26 -1 18 -29 -13 -81 -7 -129 15 -24 11 -60 20
-79 20 -54 0 -55 18 -2 67 64 58 90 70 172 78 81 8 94 14 156 71 45 42 49 44
111 44 l65 0 55 -54 c30 -30 70 -62 88 -72 19 -9 45 -25 58 -35 38 -30 57 -25
57 15 0 34 -1 34 -41 33 -54 -2 -129 52 -166 120 -11 21 -8 27 34 65 43 41 87
124 87 166 0 29 22 52 65 66 22 8 40 20 40 27 0 21 -20 21 -45 -1 -13 -11 -34
-20 -47 -20 -18 0 -23 -5 -23 -25 0 -40 -58 -151 -96 -184 -23 -21 -45 -31
-67 -31 -18 0 -59 -9 -92 -19 -33 -10 -65 -17 -72 -14 -17 7 -24 32 -14 50 5
10 3 36 -5 67 -8 28 -14 66 -14 84 0 22 -4 31 -11 26 -7 -4 -10 -25 -6 -59 5
-48 -2 -78 -17 -76 -24 3 -27 -1 -10 -14 10 -8 15 -15 10 -15 -6 0 -2 -6 7
-13 13 -9 16 -20 11 -45 -7 -35 -31 -55 -77 -66 -25 -6 -28 -4 -22 13 4 12 -1
33 -12 51 -20 35 -33 39 -33 10 0 -11 4 -20 10 -20 5 0 8 -16 7 -36 -2 -32 -6
-37 -39 -49 -21 -7 -69 -32 -107 -55 -72 -43 -100 -46 -80 -9 5 11 9 25 7 30
-2 6 -10 -2 -18 -18 -8 -15 -23 -40 -34 -55 -30 -43 -177 -134 -269 -168 -15
-5 -31 -20 -36 -32 -9 -23 -9 -23 -16 4 -7 29 10 120 29 151 6 10 44 45 84 78
118 97 152 158 118 212 -26 40 -106 246 -106 271 0 32 43 63 123 87 95 29 105
27 168 -38 31 -32 66 -71 78 -87 20 -27 22 -28 27 -10 7 25 53 26 78 2 10 -10
25 -18 34 -18 12 0 4 12 -23 36 -30 27 -46 34 -66 30 -20 -4 -37 6 -87 53 -50
46 -60 61 -55 80 8 29 37 40 153 55 126 17 174 7 216 -41 31 -36 32 -36 44
-14 6 13 10 24 8 25 -2 1 -14 7 -28 14 -14 6 -37 22 -53 34 -41 33 -154 42
-247 19 -60 -15 -72 -16 -82 -4 -9 11 -9 19 0 31 7 10 23 40 36 67 28 60 101
134 168 170 49 27 147 53 234 62 45 5 53 2 67 -17 8 -12 17 -17 21 -12 3 5
-10 22 -29 39 -33 29 -33 31 -21 67 7 20 18 42 24 48 16 16 15 28 -2 28 -7 0
-16 -13 -19 -29 -3 -16 -13 -35 -20 -43 -8 -8 -16 -23 -18 -33 -3 -14 -20 -23
-64 -33 -33 -7 -78 -18 -100 -23 -22 -6 -50 -13 -63 -16 -17 -4 -21 -2 -16 10
3 8 -22 -11 -56 -43 -34 -32 -66 -62 -71 -67 -6 -4 -19 -23 -30 -40 -30 -52
-49 -43 -49 21 0 31 -8 73 -18 98 -29 67 -35 113 -17 128 15 13 21 50 8 50
-16 -1 -53 -39 -53 -54 0 -9 7 -33 17 -54 29 -65 42 -125 43 -194 0 -60 -3
-71 -28 -100 -16 -18 -31 -41 -35 -50 -3 -10 -59 -43 -124 -75 -123 -60 -152
-83 -153 -120 0 -13 -6 -23 -13 -23 -22 0 -48 104 -52 208 -3 62 -9 98 -16
101 -7 2 3 10 21 17 26 11 31 18 27 36 -4 16 3 34 27 62 46 58 49 65 58 126 4
30 10 66 14 79 6 20 4 23 -9 18 -12 -4 -21 2 -31 21 -8 15 -34 46 -59 69 -25
23 -54 54 -65 68 -18 22 -24 25 -42 15 -27 -14 -50 2 -50 35 0 13 -3 30 -6 39
-11 29 -24 17 -24 -21z m138 -724 c8 -87 16 -117 42 -169 32 -63 31 -75 -5
-82 -11 -2 -19 -11 -17 -19 2 -8 0 -11 -4 -7 -8 9 -34 -9 -34 -23 0 -5 7 -9
15 -9 8 0 15 5 15 10 0 6 7 10 16 10 9 0 23 8 30 18 16 21 23 14 58 -54 36
-68 42 -111 22 -157 -11 -28 -21 -37 -39 -37 -24 0 -56 -20 -112 -72 -16 -15
-36 -28 -42 -28 -27 0 -45 51 -53 145 -3 52 -9 97 -11 99 -2 2 -17 6 -34 10
l-30 8 28 -30 c25 -26 29 -38 32 -104 2 -51 9 -87 24 -116 35 -69 29 -222 -9
-222 -5 0 -34 29 -63 65 -49 59 -56 74 -71 148 -9 45 -16 98 -16 118 0 33 24
122 40 144 3 6 7 37 9 70 1 32 8 82 16 109 8 27 15 61 15 74 0 27 41 99 103
180 53 70 63 59 75 -79z m-332 -386 c-7 -7 -26 7 -26 19 0 6 6 6 15 -2 9 -7
13 -15 11 -17z m285 -490 c99 -111 147 -197 156 -283 6 -60 -9 -42 -32 38 -18
63 -40 81 -48 40 -3 -15 -5 -10 -6 13 -1 42 -19 82 -73 162 -41 60 -39 76 3
30z m129 -76 c0 -5 -4 -5 -10 -2 -5 3 -10 14 -10 23 0 15 2 15 10 2 5 -8 10
-19 10 -23z m-104 -225 c16 -53 19 -148 4 -157 -6 -4 -10 21 -10 68 0 40 -3
77 -7 81 -8 7 -33 76 -33 91 0 20 33 -39 46 -83z m151 -64 c-3 -8 -6 -5 -6 6
-1 11 2 17 5 13 3 -3 4 -12 1 -19z m-100 -10 c-3 -8 -6 -5 -6 6 -1 11 2 17 5
13 3 -3 4 -12 1 -19z m80 -80 c-3 -7 -5 -2 -5 12 0 14 2 19 5 13 2 -7 2 -19 0
-25z m100 0 c-3 -8 -6 -5 -6 6 -1 11 2 17 5 13 3 -3 4 -12 1 -19z m-47 -13 c0
-8 -4 -15 -10 -15 -5 0 -7 7 -4 15 4 8 8 15 10 15 2 0 4 -7 4 -15z m10 -70
c-12 -25 -41 -60 -63 -79 -35 -28 -143 -90 -182 -105 -15 -5 56 57 88 76 15
10 27 23 27 30 0 17 17 17 23 1 5 -15 104 85 113 115 3 10 8 16 11 13 3 -3 -5
-25 -17 -51z m0 -90 c-7 -8 -17 -15 -23 -15 -5 0 -2 9 8 20 21 23 35 19 15 -5z
m-50 -150 c0 -2 -14 -12 -31 -21 -17 -8 -28 -11 -24 -4 4 6 17 15 29 20 27 11
26 11 26 5z"/>
<path d="M5084 5575 c-7 -19 -14 -58 -13 -87 l1 -53 10 43 c5 23 13 40 19 37
5 -4 9 0 10 7 1 7 3 30 4 51 5 47 -11 48 -31 2z m13 -37 c-3 -8 -6 -5 -6 6 -1
11 2 17 5 13 3 -3 4 -12 1 -19z"/>
<path d="M5750 6502 c-27 -8 -50 -35 -50 -56 0 -17 -2 -18 -10 -6 -8 12 -10
11 -10 -7 0 -12 -4 -25 -10 -28 -5 -3 -10 -11 -10 -16 0 -6 18 3 40 21 22 17
39 35 37 40 -1 5 6 15 17 23 21 16 19 36 -4 29z"/>
<path d="M5355 6487 c-4 -8 -2 -25 5 -36 6 -12 8 -36 4 -56 -3 -19 -2 -35 3
-35 9 0 11 11 14 81 2 43 -16 75 -26 46z"/>
<path d="M6353 6487 c-13 -5 -23 -18 -23 -29 0 -23 12 -23 34 1 24 26 17 41
-11 28z"/>
<path d="M4410 6483 c0 -11 67 -53 84 -53 8 0 18 -4 21 -10 3 -5 14 -10 23
-10 12 1 8 9 -17 32 -32 29 -35 30 -42 12 -6 -17 -8 -16 -18 9 -7 17 -18 27
-31 27 -11 0 -20 -3 -20 -7z"/>
<path d="M6303 6453 c-7 -2 -13 -13 -13 -24 0 -12 5 -16 14 -13 8 3 14 14 13
25 -1 10 -1 19 -2 18 0 0 -6 -3 -12 -6z"/>
<path d="M4350 6434 c0 -21 56 -101 80 -114 11 -6 20 -9 20 -8 0 13 -51 99
-68 116 -26 26 -32 27 -32 6z"/>
<path d="M4955 6418 l-40 -21 29 -8 c17 -5 32 -6 35 -4 2 3 -1 5 -7 5 -7 0
-12 5 -12 10 0 6 11 8 25 4 26 -7 59 11 49 27 -8 14 -36 10 -79 -13z"/>
<path d="M5515 6418 c-24 -14 -45 -40 -39 -50 2 -4 -6 -14 -18 -22 -34 -24
-17 -27 21 -4 24 16 29 23 19 29 -10 7 -8 9 6 9 10 0 25 8 32 18 25 32 15 41
-21 20z"/>
<path d="M5800 6385 c0 -42 14 -75 26 -62 4 4 2 13 -4 19 -14 14 -16 28 -3 28
5 0 12 -14 16 -31 4 -17 9 -28 12 -25 9 9 -7 60 -27 86 l-20 25 0 -40z"/>
<path d="M5968 6391 c-10 -12 -14 -29 -11 -43 3 -16 2 -19 -5 -10 -7 11 -10
10 -16 -3 -18 -48 23 -34 48 16 27 54 17 78 -16 40z"/>
<path d="M7411 6374 c0 -11 3 -14 6 -6 3 7 2 16 -1 19 -3 4 -6 -2 -5 -13z"/>
<path d="M5618 6340 c-5 -35 7 -41 16 -7 8 30 7 37 -3 37 -5 0 -11 -13 -13
-30z"/>
<path d="M4290 6336 c0 -11 29 -69 30 -58 0 6 5 12 11 12 7 0 9 -10 5 -24 -3
-14 -2 -27 3 -30 5 -3 12 6 15 20 6 21 1 33 -20 55 -24 26 -44 37 -44 25z"/>
<path d="M6335 6330 c-7 -12 3 -17 50 -24 39 -6 76 6 62 20 -11 11 -105 15
-112 4z"/>
<path d="M7420 6328 c0 -7 5 -20 10 -28 8 -12 10 -9 10 13 0 15 -4 27 -10 27
-5 0 -10 -6 -10 -12z"/>
<path d="M4980 6318 c1 -20 29 -53 37 -43 5 4 2 10 -4 12 -7 3 -13 11 -13 18
0 8 -4 17 -10 20 -5 3 -10 0 -10 -7z"/>
<path d="M5827 6289 c7 -7 15 -10 18 -7 3 3 -2 9 -12 12 -14 6 -15 5 -6 -5z"/>
<path d="M6023 6276 c-31 -15 -38 -36 -11 -36 19 0 47 25 48 43 0 9 -9 7 -37
-7z"/>
<path d="M5762 6250 c-18 -29 -41 -100 -32 -100 4 0 14 17 23 38 14 33 15 34
11 7 -5 -27 -4 -28 7 -11 19 30 29 86 15 86 -6 0 -17 -9 -24 -20z"/>
<path d="M7440 6261 c0 -5 4 -12 9 -15 4 -3 11 -23 15 -43 6 -39 36 -90 36
-62 -1 48 -60 167 -60 120z"/>
<path d="M6202 6246 c-14 -9 -12 -11 18 -19 70 -17 95 -18 114 -4 19 14 18 15
-16 26 -39 13 -89 12 -116 -3z m118 -16 c0 -5 -2 -10 -4 -10 -3 0 -8 5 -11 10
-3 6 -1 10 4 10 6 0 11 -4 11 -10z"/>
<path d="M3856 6234 c-9 -25 -7 -72 4 -79 6 -3 10 2 10 12 0 15 2 16 10 3 16
-26 24 16 9 50 -16 34 -24 37 -33 14z"/>
<path d="M4371 6224 c0 -11 3 -14 6 -6 3 7 2 16 -1 19 -3 4 -6 -2 -5 -13z"/>
<path d="M5621 6207 c-10 -18 -9 -28 2 -49 13 -25 14 -26 25 -7 15 23 5 49
-10 28 -7 -10 -8 -4 -4 19 7 38 4 40 -13 9z"/>
<path d="M5974 6219 c-9 -16 2 -22 21 -11 15 8 16 10 1 15 -8 3 -18 2 -22 -4z"/>
<path d="M2800 6186 c-5 -15 -10 -42 -9 -59 0 -27 3 -23 15 22 15 57 12 82 -6
37z"/>
<path d="M4480 6181 c0 -5 7 -14 15 -21 18 -15 20 -57 3 -63 -7 -2 -2 -2 11 0
24 4 61 33 42 33 -6 0 -11 6 -11 14 0 7 -11 21 -25 30 -28 18 -35 20 -35 7z"/>
<path d="M5940 6180 c0 -5 7 -7 15 -4 8 4 15 8 15 10 0 2 -7 4 -15 4 -8 0 -15
-4 -15 -10z"/>
<path d="M4130 6171 c0 -5 -6 -16 -13 -23 -15 -16 -37 -64 -37 -83 0 -9 8 -6
26 10 27 25 49 91 33 101 -5 3 -9 1 -9 -5z m-13 -63 c-3 -8 -6 -5 -6 6 -1 11
2 17 5 13 3 -3 4 -12 1 -19z"/>
<path d="M4212 6172 c-8 -6 -1 -14 24 -26 29 -13 39 -14 45 -4 17 27 -36 51
-69 30z"/>
<path d="M3700 6152 c0 -16 66 -70 93 -76 15 -3 27 -4 27 0 0 12 -29 34 -45
34 -9 0 -14 4 -11 9 3 5 -5 16 -19 25 -26 17 -45 21 -45 8z"/>
<path d="M3880 6134 c0 -8 5 -12 10 -9 6 4 8 11 5 16 -9 14 -15 11 -15 -7z"/>
<path d="M3947 6144 c-6 -11 17 -82 32 -97 8 -8 11 -5 11 9 0 16 2 17 11 4 8
-11 9 -8 4 13 -7 32 -50 84 -58 71z"/>
<path d="M6291 6135 l-34 -12 39 -6 c90 -15 159 -2 109 21 -32 15 -69 14 -114
-3z"/>
<path d="M5661 6114 c0 -11 3 -14 6 -6 3 7 2 16 -1 19 -3 4 -6 -2 -5 -13z"/>
<path d="M5430 6105 c-7 -8 -18 -15 -24 -15 -6 0 -24 -16 -39 -35 -15 -19 -23
-35 -17 -35 5 0 10 5 10 10 0 6 9 10 19 10 23 0 84 57 75 71 -7 12 -9 12 -24
-6z"/>
<path d="M4553 6095 c-15 -17 -3 -27 17 -15 10 6 11 12 5 19 -6 6 -14 4 -22
-4z"/>
<path d="M4780 6071 c0 -5 14 -14 31 -21 26 -11 32 -11 39 1 6 8 4 16 -3 21
-17 11 -67 10 -67 -1z"/>
<path d="M7500 6059 c0 -11 4 -18 10 -14 5 3 7 12 3 20 -7 21 -13 19 -13 -6z"/>
<path d="M2765 6057 c-4 -10 -5 -21 -1 -24 10 -10 18 4 13 24 -4 17 -4 17 -12
0z"/>
<path d="M4516 6038 c3 -13 11 -29 16 -35 12 -15 82 -18 73 -3 -3 6 -16 10
-29 10 -14 0 -28 10 -36 25 -17 31 -34 33 -24 3z"/>
<path d="M4310 6043 c-8 -2 -22 -7 -30 -10 -19 -6 42 -33 74 -33 17 0 18 2 6
10 -13 9 -13 10 0 10 11 1 10 4 -4 15 -21 16 -23 16 -46 8z"/>
<path d="M4900 6040 c0 -5 4 -10 9 -10 6 0 13 5 16 10 3 6 -1 10 -9 10 -9 0
-16 -4 -16 -10z"/>
<path d="M5921 6016 c-6 -7 -8 -22 -4 -31 4 -11 2 -16 -3 -12 -6 3 -18 -7 -28
-24 -9 -16 -12 -29 -7 -29 16 0 53 40 74 77 16 32 16 33 -2 33 -10 0 -24 -6
-30 -14z"/>
<path d="M6270 6020 c0 -6 7 -13 15 -16 8 -3 17 -14 20 -23 5 -18 53 -46 62
-37 7 7 -39 66 -48 61 -4 -3 -9 2 -13 10 -6 17 -36 21 -36 5z"/>
<path d="M5030 6005 c0 -8 7 -15 15 -15 9 0 12 6 9 15 -4 8 -10 15 -15 15 -5
0 -9 -7 -9 -15z"/>
<path d="M6153 5975 c2 -27 2 -42 0 -32 -2 9 -9 15 -14 12 -13 -9 -11 -62 3
-84 11 -18 13 -17 25 17 17 48 16 63 -2 103 l-16 34 4 -50z"/>
<path d="M7515 6000 c2 -14 5 -31 5 -38 0 -7 5 -10 10 -7 6 4 10 -7 10 -27 0
-22 3 -29 9 -19 10 16 3 50 -14 71 -7 8 -15 22 -19 30 -3 8 -4 4 -1 -10z"/>
<path d="M3715 5991 c-7 -13 33 -34 54 -28 9 2 22 -2 29 -10 17 -17 42 -17 42
1 0 19 -26 27 -69 21 -20 -3 -30 -2 -23 1 6 3 10 10 6 15 -7 12 -31 12 -39 0z"/>
<path d="M4640 5980 c0 -5 6 -10 14 -10 7 0 29 -2 47 -5 l34 -5 -30 14 c-35
18 -65 20 -65 6z"/>
<path d="M2748 5954 c-5 -4 -8 -21 -7 -38 0 -30 0 -30 10 -7 11 27 8 57 -3 45z"/>
<path d="M4447 5953 c-4 -3 -7 -11 -7 -17 0 -6 5 -5 12 2 6 6 9 14 7 17 -3 3
-9 2 -12 -2z"/>
<path d="M5353 5943 c9 -2 23 -2 30 0 6 3 -1 5 -18 5 -16 0 -22 -2 -12 -5z"/>
<path d="M5452 5938 c3 -7 20 -14 39 -16 32 -3 33 -3 14 12 -24 19 -58 21 -53
4z"/>
<path d="M4150 5932 c0 -5 9 -12 21 -15 13 -3 19 -1 16 6 -5 15 -37 22 -37 9z"/>
<path d="M4216 5921 c-8 -12 14 -26 47 -30 31 -3 36 13 8 29 -24 12 -48 13
-55 1z"/>
<path d="M4573 5906 c-30 -17 -63 -47 -63 -58 0 -16 25 -8 39 13 9 16 15 19
21 10 9 -15 40 1 59 30 10 17 8 19 -11 18 -13 -1 -33 -7 -45 -13z"/>
<path d="M6268 5882 c-28 -17 -38 -42 -18 -42 14 0 70 42 70 52 0 12 -22 8
-52 -10z"/>
<path d="M5978 5883 c-10 -2 -18 -11 -18 -18 0 -19 21 -30 30 -15 4 6 22 12
40 13 49 3 52 27 3 26 -21 -1 -46 -3 -55 -6z"/>
<path d="M7540 5863 c0 -18 4 -33 9 -33 5 0 12 -8 14 -17 4 -14 5 -14 6 3 0
12 -6 35 -14 50 l-15 29 0 -32z"/>
<path d="M2722 5845 c-11 -25 -7 -55 8 -55 7 0 20 47 20 71 0 18 -17 8 -28
-16z"/>
<path d="M3800 5856 c0 -11 33 -66 49 -80 16 -15 19 -15 24 -1 4 9 1 15 -8 15
-9 0 -15 9 -15 23 0 16 -9 28 -25 35 -14 6 -25 10 -25 8z"/>
<path d="M4106 5829 c-18 -26 -23 -129 -6 -129 6 0 10 6 9 13 -1 6 0 26 1 42
l2 30 7 -30 c6 -28 7 -27 14 18 4 27 3 56 -2 64 -7 13 -11 12 -25 -8z"/>
<path d="M6195 5830 c-14 -15 -15 -20 -4 -20 25 0 45 18 33 30 -7 7 -16 5 -29
-10z"/>
<path d="M6506 5806 c-9 -19 -16 -51 -15 -73 l1 -38 10 30 c6 17 15 33 20 36
13 8 23 79 10 79 -5 0 -17 -15 -26 -34z"/>
<path d="M4530 5770 c0 -5 5 -10 10 -10 6 0 10 5 10 10 0 6 -4 10 -10 10 -5 0
-10 -4 -10 -10z"/>
<path d="M4580 5750 c0 -12 7 -20 18 -20 9 0 27 -3 40 -6 32 -9 27 13 -8 31
-39 20 -50 19 -50 -5z"/>
<path d="M4783 5752 c-18 -9 -35 -23 -37 -30 -9 -20 25 -28 39 -9 7 10 16 17
21 17 5 0 15 9 22 20 15 25 1 26 -45 2z"/>
<path d="M7560 5725 c0 -27 3 -46 6 -42 3 3 6 22 6 42 0 20 -3 39 -6 42 -3 4
-6 -15 -6 -42z"/>
<path d="M6220 5735 c-16 -19 0 -19 26 0 16 12 16 14 3 15 -9 0 -22 -7 -29
-15z"/>
<path d="M2721 5724 c0 -11 3 -14 6 -6 3 7 2 16 -1 19 -3 4 -6 -2 -5 -13z"/>
<path d="M4233 5733 c-13 -2 -23 -9 -23 -14 0 -5 -6 -9 -12 -10 -7 0 -24 -14
-37 -32 -14 -18 -18 -26 -11 -19 8 6 24 12 37 12 13 0 26 7 29 15 4 8 12 15
19 15 6 0 20 9 30 20 19 21 16 22 -32 13z"/>
<path d="M6292 5723 c3 -18 55 -37 63 -23 6 10 -33 40 -53 40 -7 0 -12 -8 -10
-17z"/>
<path d="M6645 5720 c-3 -5 -17 -10 -31 -10 -13 0 -24 -4 -24 -9 0 -5 -9 -13
-20 -16 -11 -4 -18 -11 -14 -16 3 -6 15 -4 29 5 13 9 30 13 38 10 8 -3 27 6
43 20 28 24 28 25 7 26 -12 0 -25 -4 -28 -10z"/>
<path d="M4720 5690 c0 -6 7 -10 15 -10 8 0 15 2 15 4 0 2 -7 6 -15 10 -8 3
-15 1 -15 -4z"/>
<path d="M3860 5669 c0 -5 7 -32 16 -60 17 -53 35 -58 29 -8 -5 42 -45 102
-45 68z"/>
<path d="M5820 5675 c0 -26 67 -131 77 -121 7 6 -20 77 -38 100 -18 23 -39 34
-39 21z"/>
<path d="M3740 5660 c0 -17 42 -70 52 -64 4 3 8 -2 8 -10 0 -9 4 -16 9 -16 17
0 -3 54 -28 76 -29 26 -41 30 -41 14z"/>
<path d="M6647 5625 c-8 -8 -17 -12 -20 -9 -8 8 -67 -6 -67 -15 0 -5 19 -8 43
-9 42 0 87 20 87 38 0 15 -27 12 -43 -5z"/>
<path d="M2700 5600 c0 -16 2 -30 4 -30 2 0 6 14 8 30 3 17 1 30 -4 30 -4 0
-8 -13 -8 -30z"/>
<path d="M4760 5624 c0 -3 7 -12 15 -20 11 -11 20 -12 32 -5 16 9 15 11 -10
20 -32 13 -37 13 -37 5z"/>
<path d="M6110 5621 c0 -6 7 -14 15 -17 8 -4 15 -12 15 -20 0 -8 6 -14 13 -14
7 0 20 -9 30 -20 17 -20 47 -27 47 -12 0 14 -66 73 -73 66 -4 -4 -16 1 -27 11
-12 11 -20 13 -20 6z"/>
<path d="M6051 5584 c0 -11 3 -14 6 -6 3 7 2 16 -1 19 -3 4 -6 -2 -5 -13z"/>
<path d="M1732 5575 c-45 -20 -48 -37 -19 -103 55 -123 116 -389 171 -742 23
-152 24 -157 80 -256 l56 -100 76 -18 c96 -23 214 -82 281 -141 28 -25 54 -42
56 -38 3 5 -25 83 -62 173 -37 91 -76 199 -85 240 -10 41 -21 84 -26 95 -5 11
-11 38 -14 60 -6 48 -26 132 -56 240 -12 44 -26 96 -30 115 -14 62 -81 243
-117 315 -41 82 -62 108 -122 146 -36 23 -56 29 -100 29 -31 -1 -71 -7 -89
-15z"/>
<path d="M8422 5568 c-57 -28 -110 -95 -151 -194 -18 -43 -37 -88 -42 -99 -4
-11 -20 -58 -34 -105 -14 -47 -30 -98 -35 -115 -10 -32 -76 -310 -105 -440
-10 -44 -25 -98 -35 -120 -66 -150 -131 -325 -121 -325 5 0 22 13 37 28 71 70
185 130 304 158 50 12 76 24 84 38 90 150 98 170 117 291 57 370 117 636 175
783 14 34 24 70 22 79 -8 42 -146 56 -216 21z"/>
<path d="M6052 5501 c2 -36 8 -66 14 -68 15 -5 10 105 -5 120 -9 9 -11 -2 -9
-52z"/>
<path d="M3910 5539 c0 -5 5 -7 10 -4 6 3 10 8 10 11 0 2 -4 4 -10 4 -5 0 -10
-5 -10 -11z"/>
<path d="M4756 5531 c-17 -6 -17 -8 -3 -14 8 -3 21 1 27 9 13 15 6 17 -24 5z"/>
<path d="M7584 5475 c0 -38 -3 -87 -7 -107 -5 -23 -4 -38 2 -38 13 0 25 160
13 190 -8 20 -10 10 -8 -45z"/>
<path d="M2686 5515 c-7 -20 3 -125 15 -145 6 -9 8 18 5 68 -4 85 -9 105 -20
77z"/>
<path d="M6568 5500 c12 -10 22 -23 22 -29 0 -6 7 -11 15 -11 9 0 27 -7 41
-16 17 -12 28 -14 35 -7 12 12 -39 53 -65 53 -9 0 -16 4 -16 9 0 5 -12 11 -27
14 l-28 5 23 -18z"/>
<path d="M3685 5496 c-18 -13 -17 -14 15 -21 24 -5 36 -3 44 7 6 8 18 17 26
21 8 3 -3 6 -26 6 -22 1 -49 -5 -59 -13z"/>
<path d="M5752 5490 c0 -14 2 -19 5 -12 2 6 2 18 0 25 -3 6 -5 1 -5 -13z"/>
<path d="M3760 5480 c0 -13 20 -13 40 0 12 8 9 10 -12 10 -16 0 -28 -4 -28
-10z"/>
<path d="M5666 5443 c-19 -38 -31 -113 -18 -113 6 0 12 12 14 28 2 15 8 26 16
25 8 -2 12 11 12 42 0 25 -2 45 -5 45 -2 0 -11 -12 -19 -27z"/>
<path d="M4660 5441 c0 -5 7 -11 15 -15 8 -3 15 -1 15 3 0 5 -7 11 -15 15 -8
3 -15 1 -15 -3z"/>
<path d="M2125 5423 c-11 -3 -24 -9 -29 -13 -4 -5 12 -64 37 -132 46 -123 58
-168 97 -353 53 -250 100 -417 139 -490 31 -59 73 -164 101 -256 19 -62 26
-72 144 -187 112 -110 142 -132 158 -117 7 7 -19 166 -42 260 -18 72 -56 185
-81 240 -56 127 -137 406 -184 633 -37 182 -73 267 -146 341 -51 51 -143 86
-194 74z"/>
<path d="M8143 5420 c-76 -15 -147 -73 -196 -160 -33 -59 -51 -117 -86 -280
-52 -239 -132 -514 -174 -597 -15 -29 -77 -217 -95 -288 -31 -121 -40 -225
-20 -225 37 0 262 225 279 280 22 70 71 196 99 255 15 33 35 78 44 99 28 68
97 343 116 461 17 108 96 362 121 390 5 5 9 21 9 36 0 19 -6 28 -22 33 -13 3
-25 5 -28 5 -3 -1 -24 -5 -47 -9z"/>
<path d="M4702 5394 c-14 -16 -16 -34 -2 -34 5 0 18 -9 28 -20 l19 -21 -5 28
c-3 15 -10 35 -16 44 -9 14 -13 14 -24 3z"/>
<path d="M5490 5399 c0 -17 33 -69 44 -69 5 0 15 -8 22 -17 32 -42 11 18 -26
75 -15 23 -40 30 -40 11z"/>
<path d="M6536 5395 c-4 -11 -12 -14 -26 -10 -14 5 -20 2 -20 -9 0 -19 19 -20
71 -4 38 11 53 28 25 28 -8 0 -21 3 -29 6 -8 3 -17 -2 -21 -11z"/>
<path d="M3740 5367 c0 -17 58 -35 89 -27 36 8 36 26 0 34 -52 10 -89 7 -89
-7z"/>
<path d="M5849 5366 c16 -19 44 -21 39 -3 -3 6 -15 14 -28 15 -21 3 -22 2 -11
-12z"/>
<path d="M3952 5340 c-12 -20 -12 -21 13 -4 28 18 31 24 12 24 -7 0 -18 -9
-25 -20z"/>
<path d="M2694 5308 c3 -13 6 -32 7 -43 0 -19 1 -19 8 -1 9 24 2 66 -11 66 -6
0 -8 -10 -4 -22z"/>
<path d="M6470 5280 c0 -6 7 -13 15 -16 8 -4 13 -9 10 -13 -5 -9 49 -51 65
-51 18 0 11 16 -27 53 -35 36 -63 48 -63 27z"/>
<path d="M3950 5265 c-9 -118 -9 -155 -3 -155 11 0 33 50 33 74 0 30 -29 106
-30 81z"/>
<path d="M3710 5260 c-38 -11 -5 -20 55 -16 71 5 72 5 55 15 -16 11 -73 11
-110 1z"/>
<path d="M7566 5219 c-8 -44 -8 -139 2 -139 4 0 8 38 10 85 4 88 -1 108 -12
54z"/>
<path d="M2720 5109 c1 -66 5 -101 16 -119 l15 -25 -5 30 c-3 17 -8 68 -12
115 -3 47 -7 87 -10 89 -2 2 -4 -38 -4 -90z"/>
<path d="M3847 5149 c-11 -15 -16 -17 -20 -7 -3 8 -9 3 -17 -15 -26 -54 9 -44
51 15 11 15 16 28 10 28 -5 0 -16 -9 -24 -21z"/>
<path d="M1213 5130 c-51 -21 -19 -129 99 -333 101 -177 169 -315 252 -516 94
-226 83 -205 241 -442 74 -111 135 -203 135 -204 0 -2 19 -36 43 -77 24 -40
53 -98 66 -128 38 -91 93 -200 102 -200 5 0 9 -5 9 -12 0 -32 236 -235 431
-373 101 -71 304 -219 309 -225 3 -4 28 -21 55 -40 51 -34 75 -53 205 -155
229 -181 319 -273 356 -360 21 -50 44 -214 44 -312 l0 -83 509 0 c281 0 512 3
514 8 4 7 -22 290 -42 447 -15 127 -38 261 -65 385 -64 293 -123 422 -243 536
-24 23 -43 46 -43 52 0 6 -8 16 -17 21 -16 9 -16 12 -3 21 12 8 9 9 -10 5 -15
-4 -33 0 -45 9 l-20 15 20 1 c17 1 17 3 -5 11 -15 6 -26 7 -28 1 -2 -6 -31 5
-65 23 -34 18 -81 43 -105 55 -27 13 -42 26 -39 34 4 10 -1 12 -15 8 -17 -4
-20 -2 -15 11 5 13 1 17 -19 17 -19 0 -25 4 -21 15 4 8 2 17 -3 20 -4 3 -10 0
-12 -6 -3 -8 -9 -6 -20 4 -8 9 -18 13 -21 10 -4 -3 -19 8 -35 24 -18 17 -73
46 -138 72 -248 98 -295 116 -430 162 -133 45 -246 102 -386 192 -32 21 -115
94 -185 163 -232 229 -392 327 -554 341 -123 10 -229 -43 -229 -116 0 -41 44
-120 103 -182 28 -31 84 -92 122 -134 39 -43 87 -96 108 -118 21 -22 36 -41
34 -44 -8 -7 -242 231 -298 302 -112 145 -125 199 -60 264 36 36 111 71 153
71 10 0 18 5 18 12 0 22 -179 341 -219 390 -6 7 -38 48 -72 91 -82 106 -171
190 -247 234 -52 29 -76 36 -130 39 -37 2 -77 0 -89 -6z m1108 -1533 c123 -80
318 -228 360 -273 42 -46 129 -175 129 -192 0 -25 -16 -9 -55 54 -22 36 -69
92 -104 125 -78 73 -255 211 -313 244 -47 27 -138 112 -138 129 0 6 8 2 18
-10 9 -12 56 -46 103 -77z"/>
<path d="M6580 5136 c0 -11 58 -32 93 -34 40 -3 49 11 18 28 -19 10 -111 15
-111 6z"/>
<path d="M8958 5125 c-171 -63 -343 -266 -562 -667 -43 -78 -44 -88 -11 -88
40 0 129 -45 159 -81 24 -28 28 -40 24 -79 -7 -68 -77 -169 -213 -306 -63 -64
-115 -119 -115 -122 0 -7 -33 -31 -43 -32 -11 0 74 99 183 212 184 193 207
298 75 347 -126 47 -274 11 -453 -111 -42 -29 -140 -114 -217 -189 -82 -80
-178 -161 -231 -198 -50 -33 -94 -61 -97 -61 -3 0 -36 -18 -74 -39 -37 -21
-130 -60 -206 -85 -164 -55 -311 -113 -425 -166 -45 -22 -100 -44 -122 -50
-22 -6 -42 -15 -45 -20 -8 -13 -35 -13 -35 0 0 6 8 14 18 17 9 4 35 21 57 38
22 18 48 35 58 38 9 4 17 13 17 21 0 10 -6 13 -15 10 -8 -4 -15 -10 -15 -14 0
-5 -19 -20 -42 -34 -59 -35 -124 -96 -102 -96 13 0 11 -4 -7 -20 -22 -18 -25
-18 -38 -2 -12 15 -12 15 -6 -7 7 -22 5 -23 -26 -16 -31 7 -32 6 -20 -9 8 -9
12 -18 10 -19 -2 -1 -17 -9 -34 -17 -16 -8 -51 -29 -76 -46 -50 -35 -89 -50
-89 -36 0 6 12 13 28 17 15 4 22 9 15 12 -20 7 -55 -17 -49 -33 6 -15 -19 -43
-126 -140 -104 -95 -155 -188 -211 -379 -45 -158 -80 -344 -107 -570 -6 -55
-16 -130 -21 -166 -5 -36 -12 -112 -15 -167 l-7 -102 510 0 509 0 11 153 c24
329 52 359 828 922 303 220 396 293 483 378 57 55 152 182 152 202 0 26 102
228 163 324 23 36 85 131 138 211 143 217 143 215 209 381 74 182 167 379 240
504 129 220 172 324 151 363 -18 33 -115 42 -183 17z m-828 -1443 c0 -19 -67
-77 -186 -162 -232 -166 -316 -246 -393 -373 -31 -51 -40 -39 -12 15 43 84
121 178 198 238 43 34 86 68 96 76 10 8 62 44 115 79 54 35 115 80 137 99 44
39 45 39 45 28z"/>
<path d="M6012 5091 c-23 -21 -42 -44 -42 -51 0 -9 6 -8 18 3 10 10 23 17 29
17 13 0 45 48 41 61 -2 5 -22 -8 -46 -30z"/>
<path d="M4067 5113 c-13 -13 -7 -32 8 -27 8 4 15 12 15 20 0 15 -12 19 -23 7z"/>
<path d="M7542 5050 c0 -14 2 -19 5 -12 2 6 2 18 0 25 -3 6 -5 1 -5 -13z"/>
<path d="M6164 5045 c-17 -8 -36 -21 -43 -29 -11 -14 -11 -16 5 -16 30 1 106
39 99 50 -8 13 -22 12 -61 -5z"/>
<path d="M3880 5035 c0 -9 63 -69 93 -88 15 -9 27 -14 27 -9 0 18 -84 102
-102 102 -10 0 -18 -2 -18 -5z"/>
<path d="M4395 5020 c-7 -12 24 -25 81 -34 27 -5 44 -3 49 3 4 7 -7 11 -32 11
-30 0 -35 3 -23 11 13 9 12 10 -3 5 -9 -3 -28 -1 -42 4 -15 6 -26 6 -30 0z"/>
<path d="M6635 5010 c-16 -4 -28 -9 -25 -10 17 -7 75 -10 88 -5 14 5 14 7 2
15 -17 11 -23 11 -65 0z"/>
<path d="M7532 4979 c-7 -21 -12 -51 -12 -67 0 -15 -4 -32 -8 -37 -12 -14 -35
-115 -29 -122 4 -3 9 8 12 23 4 16 13 41 20 55 8 14 16 41 19 60 3 19 9 53 14
77 12 54 0 63 -16 11z"/>
<path d="M4062 4985 c0 -16 2 -22 5 -12 2 9 2 23 0 30 -3 6 -5 -1 -5 -18z"/>
<path d="M4215 4980 c-8 -12 36 -30 76 -30 41 0 36 13 -11 28 -48 15 -57 15
-65 2z"/>
<path d="M5918 4963 c6 -2 18 -2 25 0 6 3 1 5 -13 5 -14 0 -19 -2 -12 -5z"/>
<path d="M5968 4963 c7 -3 16 -2 19 1 4 3 -2 6 -13 5 -11 0 -14 -3 -6 -6z"/>
<path d="M4348 4953 c7 -3 16 -2 19 1 4 3 -2 6 -13 5 -11 0 -14 -3 -6 -6z"/>
<path d="M6423 4905 c-1 -36 3 -58 13 -66 12 -10 14 -4 14 37 0 27 -6 56 -13
66 -11 14 -13 8 -14 -37z"/>
<path d="M4650 4933 c-8 -2 -25 -9 -37 -15 -17 -8 -30 -8 -48 0 -38 17 -43 14
-15 -8 32 -25 41 -25 87 1 52 29 57 37 13 22z"/>
<path d="M6538 4933 c6 -2 12 -11 12 -19 0 -19 70 -95 81 -88 5 3 9 9 9 13 0
12 -93 101 -105 100 -5 0 -4 -3 3 -6z"/>
<path d="M3786 4923 c-8 -8 34 -53 50 -53 7 0 17 -8 23 -17 8 -15 12 -16 22
-5 11 10 10 15 -1 26 -27 24 -87 56 -94 49z"/>
<path d="M6115 4910 c3 -5 13 -10 21 -10 8 0 14 5 14 10 0 6 -9 10 -21 10 -11
0 -17 -4 -14 -10z"/>
<path d="M2750 4895 c0 -8 5 -15 10 -15 6 0 10 7 10 15 0 8 -4 15 -10 15 -5 0
-10 -7 -10 -15z"/>
<path d="M6168 4893 c6 -2 18 -2 25 0 6 3 1 5 -13 5 -14 0 -19 -2 -12 -5z"/>
<path d="M4334 4851 c-47 -34 -79 -69 -71 -77 10 -10 47 16 47 34 0 12 3 13 8
4 6 -9 14 -4 28 15 45 62 43 65 -12 24z"/>
<path d="M6175 4865 c35 -16 65 -19 65 -6 0 13 -26 21 -63 20 l-32 -1 30 -13z"/>
<path d="M5946 4855 c4 -8 10 -12 15 -9 14 8 10 24 -6 24 -9 0 -12 -6 -9 -15z"/>
<path d="M5996 4845 c-26 -20 -21 -23 41 -26 57 -3 71 2 51 18 -24 19 -72 23
-92 8z"/>
<path d="M7605 4841 c-51 -23 -95 -73 -102 -117 -6 -34 -17 -44 -26 -21 -3 8
-7 6 -12 -7 -5 -10 -3 -21 3 -25 9 -5 9 -22 2 -62 -5 -29 -16 -117 -25 -194
-22 -193 -59 -341 -112 -455 -66 -139 -106 -251 -94 -263 6 -6 57 14 148 59
135 68 138 70 141 104 10 121 83 415 134 539 37 89 41 105 49 236 4 76 11 151
14 165 11 49 -55 71 -120 41z"/>
<path d="M2611 4831 c-6 -10 -8 -21 -4 -24 3 -4 10 -73 14 -153 7 -121 13
-158 34 -210 39 -98 91 -271 110 -364 9 -47 21 -101 26 -121 5 -20 9 -54 9
-76 0 -26 6 -46 18 -56 34 -31 264 -139 274 -129 12 12 -16 96 -76 224 -77
163 -149 462 -119 491 9 10 33 -13 33 -31 0 -20 33 -91 43 -92 10 0 9 17 -2
38 -6 9 -22 43 -37 75 -14 31 -32 57 -39 57 -17 0 -28 34 -28 85 1 22 -1 32
-4 23 -2 -10 -8 -18 -11 -18 -9 0 -57 145 -73 220 -6 30 -16 61 -22 68 -6 7
-34 12 -73 12 -52 0 -65 -3 -73 -19z m299 -385 c0 -3 -4 -8 -10 -11 -5 -3 -10
-1 -10 4 0 6 5 11 10 11 6 0 10 -2 10 -4z"/>
<path d="M4490 4835 c-8 -9 -8 -15 -2 -15 12 0 26 19 19 26 -2 2 -10 -2 -17
-11z"/>
<path d="M2792 4820 c0 -14 2 -19 5 -12 2 6 2 18 0 25 -3 6 -5 1 -5 -13z"/>
<path d="M4388 4790 l-33 -29 25 -1 c15 0 30 8 38 20 7 11 21 20 33 20 11 0
17 5 14 10 -11 19 -45 10 -77 -20z"/>
<path d="M5873 4794 c-6 -13 -7 -24 -3 -24 9 0 25 39 18 45 -2 2 -8 -7 -15
-21z"/>
<path d="M4555 4775 c4 -30 3 -35 -4 -20 -8 17 -10 15 -10 -13 -1 -19 -5 -31
-11 -27 -6 4 -10 -8 -10 -29 0 -47 11 -45 33 4 19 44 22 87 7 110 -7 10 -8 3
-5 -25z"/>
<path d="M5906 4762 c-4 -7 -14 -11 -22 -8 -22 8 -17 -37 7 -68 27 -34 39 -33
39 4 0 24 -3 28 -17 23 -16 -6 -16 -5 -5 10 8 9 12 24 10 34 -3 14 -5 15 -12
5z"/>
<path d="M3774 4735 c25 -19 32 -19 40 0 4 11 -2 15 -27 15 -30 -1 -31 -1 -13
-15z"/>
<path d="M3848 4743 c6 -2 12 -11 12 -19 0 -14 41 -20 53 -7 8 7 -47 34 -67
32 -7 0 -6 -2 2 -6z"/>
<path d="M3963 4693 c9 -2 23 -2 30 0 6 3 -1 5 -18 5 -16 0 -22 -2 -12 -5z"/>
<path d="M2830 4653 c0 -5 5 -15 10 -23 8 -12 10 -11 10 8 0 12 -4 22 -10 22
-5 0 -10 -3 -10 -7z"/>
<path d="M3995 4633 c5 -19 3 -22 -11 -16 -10 4 -15 2 -11 -4 3 -5 -1 -22 -9
-37 -25 -50 -14 -74 18 -37 22 26 32 77 18 98 -10 16 -10 15 -5 -4z"/>
<path d="M3846 4593 c-39 -41 -44 -53 -21 -53 20 0 55 36 55 56 0 8 5 12 10 9
6 -3 10 1 10 9 0 25 -15 19 -54 -21z"/>
<path d="M7427 4587 c-11 -29 -9 -43 4 -30 6 6 9 19 7 29 -3 18 -4 18 -11 1z"/>
<path d="M7405 4527 c-4 -10 -5 -21 -1 -24 10 -10 18 4 13 24 -4 17 -4 17 -12
0z"/>
<path d="M7368 4442 c-19 -42 -34 -100 -24 -90 4 3 6 8 5 10 -2 2 9 24 24 49
15 25 27 51 27 57 0 23 -15 11 -32 -26z"/>
<path d="M7315 4320 c-3 -5 -2 -10 4 -10 5 0 13 5 16 10 3 6 2 10 -4 10 -5 0
-13 -4 -16 -10z"/>
<path d="M7292 4258 c-14 -14 -16 -28 -3 -28 9 0 24 30 18 36 -2 2 -9 -2 -15
-8z"/>
<path d="M3000 4245 c0 -13 34 -80 47 -93 7 -7 13 -19 13 -27 0 -7 9 -23 21
-36 l20 -24 -6 30 c-4 16 -10 32 -14 35 -4 3 -18 27 -31 53 -22 44 -50 79 -50
62z"/>
<path d="M7254 4211 c3 -5 -3 -20 -14 -34 -11 -14 -20 -28 -20 -32 0 -3 -11
-23 -25 -43 -30 -44 -34 -80 -5 -42 11 14 20 28 20 33 0 4 11 24 24 45 30 46
41 82 26 82 -6 0 -9 -4 -6 -9z"/>
<path d="M3122 4028 c8 -13 21 -33 29 -45 17 -28 29 -30 22 -3 -3 11 -9 20
-13 20 -5 0 -11 9 -15 19 -3 11 -13 22 -22 25 -14 6 -14 4 -1 -16z"/>
<path d="M7132 4010 c-22 -21 -29 -40 -14 -40 9 1 45 50 40 56 -3 2 -14 -5
-26 -16z"/>
<path d="M7067 3917 c-20 -22 -37 -44 -37 -48 0 -4 -23 -31 -51 -61 -67 -70
-103 -117 -96 -125 4 -3 17 7 29 22 12 16 42 49 65 73 24 24 43 48 43 52 0 4
21 34 46 65 54 66 55 82 1 22z"/>
<path d="M3190 3942 c0 -12 19 -26 26 -19 2 2 -2 10 -11 17 -9 8 -15 8 -15 2z"/>
<path d="M3230 3887 c0 -8 7 -20 15 -27 12 -10 15 -10 15 3 0 8 -7 20 -15 27
-12 10 -15 10 -15 -3z"/>
<path d="M3280 3815 c0 -16 16 -20 24 -6 3 5 -1 11 -9 15 -9 3 -15 0 -15 -9z"/>
<path d="M3310 3782 c0 -5 7 -16 16 -23 14 -12 16 -11 13 5 -4 20 -29 35 -29
18z"/>
<path d="M3357 3744 c-3 -4 0 -13 8 -20 7 -8 23 -26 34 -40 12 -15 25 -24 29
-20 4 4 -2 14 -12 22 -11 7 -27 25 -36 39 -9 14 -19 22 -23 19z"/>
<path d="M5735 3671 c-30 -6 -30 -7 -44 -109 -9 -60 -19 -102 -26 -102 -6 0
-30 41 -54 91 l-43 91 -41 -6 c-23 -4 -43 -9 -46 -11 -2 -3 6 -76 18 -162 12
-87 21 -161 21 -165 0 -5 7 -8 15 -8 8 0 15 1 15 3 0 1 -7 38 -15 82 -28 158
-16 164 49 24 44 -94 48 -100 74 -97 26 3 27 7 35 73 15 138 18 155 27 155 5
0 12 -17 15 -37 4 -21 12 -67 18 -103 l12 -65 38 -3 c26 -2 39 1 43 12 7 19
-33 302 -47 327 -10 20 -15 21 -64 10z"/>
<path d="M6816 3630 c-45 -47 -36 -54 12 -10 18 17 38 30 43 30 6 0 7 5 4 10
-10 16 -18 12 -59 -30z"/>
<path d="M4662 3638 c-60 -31 -82 -72 -88 -160 -5 -62 -2 -78 16 -106 30 -49
90 -72 176 -69 l69 3 11 75 c7 40 9 77 5 81 -3 3 -33 9 -66 13 -59 6 -60 6
-37 -12 20 -16 22 -24 16 -68 -8 -61 -18 -75 -54 -75 -57 0 -65 49 -35 205 16
86 37 115 82 116 25 0 26 1 8 9 -33 14 -57 11 -103 -12z"/>
<path d="M3476 3606 c22 -24 47 -45 56 -45 11 -1 0 15 -31 44 -61 57 -75 58
-25 1z"/>
<path d="M5124 3593 c-9 -20 -28 -80 -44 -132 -15 -53 -35 -116 -43 -140 -9
-25 -14 -48 -11 -53 11 -18 36 -6 46 22 12 35 35 50 75 50 37 0 48 -9 60 -45
8 -25 16 -31 52 -36 76 -10 77 -5 23 181 -26 91 -51 171 -55 178 -5 6 -26 12
-48 12 -37 0 -41 -3 -55 -37z m40 -125 c16 -75 14 -83 -21 -86 -38 -4 -40 2
-18 76 17 57 29 60 39 10z"/>
<path d="M4824 3585 c11 -36 26 -47 26 -19 0 20 -18 54 -29 54 -4 0 -3 -16 3
-35z"/>
<path d="M6750 3570 c-8 -5 -12 -12 -9 -15 4 -3 12 1 19 10 14 17 11 19 -10 5z"/>
<path d="M3560 3535 c0 -8 12 -22 28 -31 15 -9 39 -25 54 -35 31 -22 38 -23
38 -9 0 6 -7 10 -15 10 -8 0 -15 5 -15 10 0 6 -6 10 -12 10 -17 1 -58 35 -58
49 0 6 -4 11 -10 11 -5 0 -10 -7 -10 -15z"/>
<path d="M5366 3344 c-22 -21 -20 -61 3 -74 48 -25 86 1 74 51 -10 41 -48 52
-77 23z"/>
<path d="M4914 3336 c-3 -8 -4 -23 -2 -33 5 -25 61 -25 66 0 7 37 -51 67 -64
33z"/>
<path d="M3906 3285 c25 -19 40 -19 24 0 -7 8 -20 15 -28 15 -13 0 -12 -3 4
-15z"/>
<path d="M3955 3250 c3 -5 16 -10 28 -9 21 0 21 1 2 9 -28 12 -37 12 -30 0z"/>
<path d="M4030 3221 c0 -9 30 -24 36 -18 2 1 -6 8 -16 15 -11 7 -20 8 -20 3z"/>
<path d="M6125 3150 c-3 -5 1 -10 9 -10 8 0 18 5 21 10 3 6 -1 10 -9 10 -8 0
-18 -4 -21 -10z"/>
<path d="M6008 3111 c-37 -14 -68 -29 -68 -33 0 -11 34 -10 46 1 5 5 33 17 63
28 29 11 47 22 40 25 -8 2 -44 -7 -81 -21z"/>
<path d="M4234 3119 c-3 -5 1 -9 9 -9 8 0 17 -7 21 -15 3 -8 12 -15 20 -15 9
0 13 6 11 13 -7 17 -54 37 -61 26z"/>
<path d="M4350 3077 c0 -7 70 -47 82 -47 15 0 -33 36 -59 44 -13 4 -23 5 -23
3z"/>
<path d="M5840 3051 c-22 -6 -23 -8 -7 -14 10 -4 27 -2 38 3 35 19 19 25 -31
11z"/>
<path d="M4470 3030 c0 -6 5 -8 10 -5 6 4 17 2 23 -4 15 -11 97 -27 97 -18 0
6 -28 15 -102 33 -19 4 -28 2 -28 -6z"/>
<path d="M5725 3020 c-18 -8 -17 -9 8 -9 15 -1 27 4 27 9 0 12 -8 12 -35 0z"/>
<path d="M4614 2993 c11 -11 106 -32 106 -24 0 10 -62 31 -90 31 -13 0 -20 -3
-16 -7z"/>
<path d="M5613 2993 c-23 -9 -14 -20 12 -15 14 2 25 8 25 13 0 10 -17 11 -37
2z"/>
<path d="M5525 2969 c-4 -6 -5 -12 -3 -14 7 -7 48 7 48 16 0 13 -37 11 -45 -2z"/>
<path d="M4816 2961 c9 -9 47 -15 74 -11 19 3 -27 18 -59 19 -16 1 -21 -3 -15
-8z"/>
<path d="M5419 2965 c-11 -10 -93 -16 -236 -15 -100 0 -153 -3 -153 -10 0 -9
73 -16 95 -9 6 2 64 4 130 6 144 2 232 12 213 24 -14 9 -42 12 -49 4z"/>
<path d="M4575 1491 c-8 -15 3 -31 21 -31 9 0 14 7 12 17 -4 20 -24 28 -33 14z"/>
<path d="M4971 1490 c-19 -11 -6 -41 14 -34 16 6 20 29 7 38 -4 2 -14 1 -21
-4z"/>
<path d="M6143 1493 c-21 -7 -15 -33 7 -33 11 0 20 6 20 14 0 18 -11 25 -27
19z"/>
<path d="M3930 1470 c-10 -10 -31 -37 -45 -60 -15 -24 -39 -46 -61 -55 -29
-12 -34 -18 -26 -32 7 -11 5 -27 -6 -50 -23 -48 -3 -65 29 -23 52 67 65 79 89
82 23 3 25 0 28 -44 2 -27 6 -48 11 -48 16 0 31 26 31 55 0 46 15 63 40 48 11
-7 29 -13 39 -13 11 0 22 -4 25 -9 8 -12 -19 -33 -41 -31 -34 4 -43 0 -43 -19
0 -28 27 -33 73 -13 40 17 43 17 59 0 16 -16 21 -16 59 -3 57 20 69 32 69 66
0 25 -5 30 -30 36 -36 7 -41 33 -6 33 30 0 54 26 38 42 -20 20 -122 -33 -122
-65 0 -14 32 -36 52 -37 22 0 34 -20 18 -30 -7 -4 -26 -7 -44 -6 -26 1 -32 6
-34 28 -2 19 -12 29 -33 37 -35 12 -38 31 -5 31 26 0 51 24 41 40 -10 16 -28
12 -79 -15 -54 -29 -66 -26 -66 15 0 24 -21 60 -36 60 -2 0 -13 -9 -24 -20z
m8 -91 c-18 -12 -23 8 -6 28 12 15 13 15 16 -2 2 -10 -2 -21 -10 -26z"/>
<path d="M4894 1472 c-6 -4 -17 -20 -25 -37 -16 -35 -66 -48 -81 -21 -5 9 -18
16 -29 16 -49 0 -169 -119 -155 -155 7 -20 50 -19 82 2 25 16 27 16 36 0 16
-29 35 -19 48 28 8 29 19 47 32 51 27 8 38 -11 27 -50 -12 -43 -12 -46 10 -46
13 0 22 13 32 53 11 41 19 53 37 55 20 3 22 1 15 -25 -11 -42 -9 -86 3 -90 7
-2 21 25 33 66 31 102 26 137 -15 106 -29 -22 -37 -18 -31 15 7 30 -1 44 -19
32z m-164 -108 c0 -8 -43 -43 -54 -44 -5 0 1 11 14 25 22 24 40 32 40 19z"/>
<path d="M6009 1435 c-10 -26 -19 -35 -35 -35 -12 0 -24 7 -27 14 -4 11 -21
14 -61 13 -50 -2 -57 -5 -67 -29 -14 -33 -25 -36 -34 -8 -3 11 -18 23 -32 26
-21 6 -31 1 -50 -21 -21 -24 -26 -26 -41 -13 -33 27 -88 50 -112 47 -22 -4
-25 -8 -22 -39 1 -19 -2 -42 -7 -50 -9 -12 -12 -12 -28 2 -10 9 -27 18 -37 19
-27 5 -22 23 8 27 35 4 51 26 31 42 -12 10 -24 8 -63 -12 -26 -13 -48 -32 -50
-42 -5 -24 16 -46 44 -46 53 0 32 -36 -25 -42 -41 -4 -51 -22 -21 -38 17 -9
30 -7 66 11 25 11 47 19 50 17 2 -3 0 -17 -6 -32 -5 -15 -8 -32 -4 -37 12 -20
32 -7 44 31 13 41 19 44 81 55 31 6 37 4 42 -14 6 -26 61 -29 95 -5 22 15 24
15 38 -2 17 -21 8 -29 68 63 33 51 54 63 68 40 5 -10 17 -17 28 -17 23 0 29
-17 19 -54 -5 -16 -6 -33 -3 -37 11 -19 34 -8 40 19 15 68 20 76 53 83 40 8
46 -4 31 -61 -8 -28 -8 -46 -2 -52 13 -13 32 -2 32 18 0 31 33 115 44 111 6
-2 15 -26 19 -53 15 -89 17 -94 32 -94 8 0 22 15 31 33 24 46 53 86 93 129 31
33 32 38 16 44 -18 7 -61 -33 -107 -97 l-16 -24 -7 30 c-15 68 -20 73 -72 70
-26 -2 -61 -6 -77 -10 -28 -8 -29 -7 -23 24 6 26 3 31 -13 31 -12 0 -23 -12
-31 -35z m-391 -82 c-2 -11 -14 -19 -31 -21 -29 -4 -30 -2 -21 22 9 23 56 21
52 -1z m127 -33 c-10 -11 -24 -20 -32 -20 -18 0 -16 30 4 52 15 17 18 17 32 4
13 -14 13 -18 -4 -36z"/>
<path d="M4472 1403 l-35 -37 -22 28 c-32 41 -62 32 -103 -28 -43 -65 -41
-100 7 -104 19 -2 45 2 58 9 18 10 26 10 35 1 16 -16 49 -15 72 3 26 20 33 19
39 -7 5 -18 8 -19 21 -8 9 7 16 20 16 30 0 9 9 43 20 74 l19 57 -25 9 c-44 17
-66 11 -102 -27z m64 -25 c7 -11 -50 -68 -68 -68 -16 0 -7 25 19 52 29 31 38
34 49 16z m-151 -18 c10 -17 -5 -49 -25 -55 -34 -11 -42 4 -20 36 22 30 35 36
45 19z"/>
<path d="M6419 1417 c-47 -32 -81 -85 -77 -122 3 -27 7 -30 40 -33 32 -3 44 3
79 36 37 34 40 41 30 60 -7 14 -8 23 -1 27 16 10 12 42 -6 49 -24 9 -28 8 -65
-17z m41 -71 c0 -18 -48 -49 -66 -42 -20 8 -6 33 24 45 37 13 42 13 42 -3z"/>
<path d="M5168 1403 c-7 -16 -13 -30 -15 -32 -1 -2 -12 8 -24 22 -28 36 -51
34 -88 -8 -32 -37 -45 -71 -39 -102 5 -27 64 -30 99 -4 l28 21 12 -22 c12 -22
13 -22 49 20 21 23 41 42 44 42 3 0 -1 -16 -9 -36 -16 -38 -13 -54 10 -54 13
0 55 111 55 145 0 24 -25 29 -53 10 -24 -15 -26 -15 -32 4 -9 29 -23 26 -37
-6z m-68 -56 c0 -28 -17 -47 -42 -47 -23 0 -23 11 3 44 25 32 39 33 39 3z"/>
<path d="M6472 1280 c-22 -29 -29 -60 -14 -60 16 0 74 68 68 79 -12 19 -31 12
-54 -19z"/>
<path d="M4923 1078 c-6 -7 -19 -31 -29 -52 -10 -22 -20 -34 -22 -28 -6 20
-67 14 -87 -8 -24 -26 -45 -26 -45 1 0 19 -4 20 -52 14 -29 -4 -57 -11 -62
-15 -16 -16 -55 -145 -45 -154 12 -13 22 -2 51 53 13 25 35 53 49 63 29 22 64
15 53 -11 -23 -55 -27 -70 -21 -85 8 -21 69 -22 101 -1 21 14 24 14 29 0 8
-20 37 -20 37 0 0 9 16 58 35 111 24 63 33 99 27 110 -7 12 -10 13 -19 2z
m-104 -174 c-24 -25 -74 -34 -67 -11 5 16 68 48 80 41 5 -4 -1 -17 -13 -30z"/>
<path d="M4257 1050 c-7 -17 -21 -33 -32 -36 -11 -3 -37 -28 -58 -55 -36 -46
-57 -61 -57 -40 0 4 9 20 20 34 22 28 27 61 8 55 -7 -3 -26 -25 -44 -50 -23
-34 -34 -44 -43 -35 -8 8 -17 5 -34 -11 -24 -22 -47 -29 -47 -14 0 19 46 61
70 64 19 2 25 9 25 28 0 14 -6 26 -16 28 -36 7 -129 -100 -129 -150 0 -24 4
-28 29 -28 17 0 42 11 59 25 37 31 49 32 48 3 -1 -33 35 -35 69 -4 35 32 45
33 45 2 0 -30 9 -37 38 -30 15 4 22 17 27 44 8 48 25 63 60 54 23 -6 26 -10
19 -33 -12 -44 -10 -66 6 -66 8 0 19 14 24 30 24 82 27 85 62 85 39 0 39 1 19
-47 -8 -19 -15 -41 -15 -48 0 -26 30 -23 67 7 l38 30 5 -29 c9 -49 33 -33 48
32 25 114 26 115 8 115 -9 0 -16 -3 -16 -7 -1 -15 -78 -98 -85 -91 -4 3 4 24
17 46 26 46 21 61 -14 38 -14 -9 -28 -13 -32 -9 -4 5 -20 8 -34 8 -27 0 -29 5
-17 38 5 13 2 17 -13 17 -13 0 -23 -9 -28 -22 -10 -35 -35 -58 -61 -58 -27 0
-27 0 -8 47 19 46 19 63 -1 63 -9 0 -21 -14 -27 -30z"/>
<path d="M4982 1068 c-5 -7 -17 -33 -26 -58 -8 -25 -22 -63 -30 -85 -21 -56
-21 -87 1 -83 10 2 19 12 21 23 2 11 7 29 11 40 34 82 60 159 55 166 -7 13
-20 11 -32 -3z"/>
<path d="M6306 1053 c-7 -16 -17 -43 -21 -60 -3 -18 -10 -33 -15 -33 -5 0 -10
-6 -13 -12 -2 -7 -2 -3 -1 9 5 30 -5 53 -25 53 -26 0 -83 -38 -125 -83 l-38
-42 6 30 c19 94 19 95 3 95 -17 0 -57 -110 -57 -156 0 -24 14 -32 25 -15 3 5
21 7 40 4 23 -4 43 0 59 11 31 20 46 20 46 3 0 -10 14 -14 45 -15 28 0 45 4
45 11 0 7 16 54 35 106 19 51 35 100 35 107 0 24 -29 15 -44 -13z m-131 -133
c-10 -11 -23 -20 -28 -20 -6 0 -2 9 8 20 10 11 23 20 28 20 6 0 2 -9 -8 -20z"/>
<path d="M6070 1056 c0 -8 4 -17 9 -20 11 -7 33 18 24 27 -12 12 -33 7 -33 -7z"/>
<path d="M5458 1020 c-14 -42 -44 -57 -60 -30 -28 44 -113 9 -148 -60 -31 -61
-24 -84 26 -88 33 -2 48 2 72 23 17 14 34 35 37 45 4 11 13 20 22 20 12 0 14
-9 8 -51 -6 -46 -5 -51 11 -47 13 2 22 17 29 48 13 60 21 70 54 70 31 0 57 23
46 40 -4 6 -19 9 -33 8 -24 -3 -27 0 -24 25 5 38 -26 36 -40 -3z m-98 -87 c0
-15 -45 -53 -62 -53 -27 0 -22 27 10 43 30 17 52 21 52 10z"/>
<path d="M5944 986 c-20 -20 -38 -36 -41 -36 -3 0 -16 11 -29 25 -30 33 -40
32 -80 -11 -29 -30 -39 -35 -64 -29 -41 9 -47 23 -13 31 64 15 73 49 11 41
-48 -6 -94 -46 -84 -72 3 -9 20 -22 36 -28 38 -15 33 -31 -11 -35 -38 -4 -53
-20 -37 -40 12 -14 58 -8 89 11 13 8 25 8 44 -1 21 -10 33 -9 62 3 25 11 40
12 47 5 19 -19 61 -10 99 21 34 28 49 59 28 59 -5 0 -23 -11 -39 -25 -41 -34
-51 -15 -16 30 18 24 34 35 48 33 16 -2 21 2 21 22 0 38 -30 37 -71 -4z m-94
-65 c0 -24 -40 -55 -54 -41 -12 12 19 60 39 60 8 0 15 -9 15 -19z"/>
<path d="M5038 983 c-34 -27 -68 -86 -68 -118 0 -22 29 -33 67 -25 55 13 105
68 84 93 -6 8 -6 18 -1 27 34 53 -23 68 -82 23z m55 -50 c11 -10 -34 -53 -55
-53 -27 0 -22 27 10 43 33 18 37 19 45 10z"/>
<path d="M6367 980 c-18 -16 -42 -47 -52 -69 -22 -51 -10 -71 44 -71 48 0 107
55 96 89 -4 13 -1 28 5 36 19 23 4 45 -29 45 -19 0 -43 -11 -64 -30z m63 -50
c0 -17 -39 -50 -60 -50 -31 0 -23 28 13 44 40 18 47 19 47 6z"/>
<path d="M1 48 c-1 -42 2 -48 19 -48 18 0 19 3 9 22 -6 12 -15 33 -20 47 -6
21 -7 17 -8 -21z"/>
<path d="M10790 75 c0 -9 -7 -29 -15 -45 -15 -28 -14 -30 5 -30 17 0 20 6 20
45 0 25 -2 45 -5 45 -3 0 -5 -7 -5 -15z"/>
</g>
</svg>
